<svg width="1920" height="1080" viewBox="0 0 1920 1080" fill="none" xmlns="http://www.w3.org/2000/svg">
  <!-- Background Gradient -->
  <defs>
    <linearGradient id="bgGradient" x1="0%" y1="0%" x2="100%" y2="100%">
      <stop offset="0%" style="stop-color:#1e3c72;stop-opacity:1" />
      <stop offset="50%" style="stop-color:#2a5298;stop-opacity:1" />
      <stop offset="100%" style="stop-color:#1e3c72;stop-opacity:1" />
    </linearGradient>
    <radialGradient id="spotGradient" cx="50%" cy="50%" r="50%">
      <stop offset="0%" style="stop-color:#ffffff;stop-opacity:0.1" />
      <stop offset="100%" style="stop-color:#ffffff;stop-opacity:0" />
    </radialGradient>
  </defs>
  
  <!-- Main Background -->
  <rect width="1920" height="1080" fill="url(#bgGradient)"/>
  
  <!-- Football Field Pattern -->
  <g opacity="0.1">
    <!-- Field Lines -->
    <line x1="0" y1="540" x2="1920" y2="540" stroke="white" stroke-width="2"/>
    <line x1="960" y1="0" x2="960" y2="1080" stroke="white" stroke-width="2"/>
    
    <!-- Center Circle -->
    <circle cx="960" cy="540" r="100" fill="none" stroke="white" stroke-width="2"/>
    <circle cx="960" cy="540" r="5" fill="white"/>
    
    <!-- Goal Areas -->
    <rect x="50" y="390" width="150" height="300" fill="none" stroke="white" stroke-width="2"/>
    <rect x="1720" y="390" width="150" height="300" fill="none" stroke="white" stroke-width="2"/>
    
    <!-- Penalty Areas -->
    <rect x="50" y="290" width="250" height="500" fill="none" stroke="white" stroke-width="2"/>
    <rect x="1620" y="290" width="250" height="500" fill="none" stroke="white" stroke-width="2"/>
  </g>
  
  <!-- Floating Geometric Shapes -->
  <g opacity="0.05">
    <circle cx="200" cy="200" r="80" fill="white"/>
    <circle cx="1720" cy="880" r="60" fill="white"/>
    <polygon points="400,100 450,150 400,200 350,150" fill="white"/>
    <polygon points="1500,200 1550,250 1500,300 1450,250" fill="white"/>
    <rect x="100" y="800" width="100" height="100" rx="20" fill="white"/>
    <rect x="1700" y="100" width="80" height="80" rx="15" fill="white"/>
  </g>
  
  <!-- Spotlight Effects -->
  <ellipse cx="480" cy="270" rx="300" ry="150" fill="url(#spotGradient)"/>
  <ellipse cx="1440" cy="810" rx="250" ry="120" fill="url(#spotGradient)"/>
</svg>